<svg xmlns="http://www.w3.org/2000/svg" viewBox="0 0 24 24" color="currentColor" fill="none" stroke="currentColor" stroke-width="1.5" stroke-linecap="round">
    <path d="M12 8V6C12 4.89543 11.1046 4 10 4H9" stroke-linejoin="round"></path>
    <path d="M2 14H4" stroke-linejoin="round"></path>
    <path d="M20 14H22" stroke-linejoin="round"></path>
    <path d="M9 13V15" stroke-linejoin="round"></path>
    <path d="M2 2L22 22" stroke-linejoin="round"></path>
    <path d="M8 8.01758C6.44655 8.06438 5.51998 8.23763 4.87868 8.87893C4 9.75761 4 11.1718 4 14.0003C4 16.8287 4 18.2429 4.87868 19.1216C5.75736 20.0003 7.17157 20.0003 10 20.0003H14C16.7018 20.0003 18.1132 20.0003 19 19.2344"></path>
    <path d="M12 8H14C16.8284 8 18.2426 8 19.1213 8.87868C20 9.75736 20 11.1716 20 14C20 14.7641 20 15.425 19.9827 16"></path>
</svg>