<svg xmlns="http://www.w3.org/2000/svg" viewBox="0 0 24 24" color="currentColor" fill="none" stroke="currentColor" stroke-width="1.5" stroke-linecap="round" stroke-linejoin="round">
    <path d="M2 6V18"></path>
    <path d="M17 3H15C12.643 3 11.4645 3 10.7322 3.73223C10 4.46447 10 5.64298 10 8V16C10 18.357 10 19.5355 10.7322 20.2678C11.4645 21 12.643 21 15 21H17C19.357 21 20.5355 21 21.2678 20.2678C22 19.5355 22 18.357 22 16V8C22 5.64298 22 4.46447 21.2678 3.73223C20.5355 3 19.357 3 17 3Z"></path>
    <path d="M6 4V20"></path>
</svg>